<?xml version="1.0" encoding="UTF-8" standalone="no"?>
<!-- Created with Inkscape (http://www.inkscape.org/) -->
<svg xmlns:svg="http://www.w3.org/2000/svg" xmlns="http://www.w3.org/2000/svg" version="1.0" width="890" height="200" id="svg2">
  <defs id="defs4">
    <clipPath id="clipPath2398">
      <path d="M 0,612 L 792,612 L 792,0 L 0,0 L 0,612 z" id="path2400"/>
    </clipPath>
  </defs>
  <g transform="translate(94.338221,-224.34237)" id="layer1">
    <g transform="matrix(1.25,0,0,-1.25,-117.90965,854.54969)" id="g2392">
      <path d="M 71,32.4375 C 68.037077,32.449342 65.625,34.125 65.625,34.125 L 9.40625,66.5 C 4.9988363,69.115415 6.4762763,74.3078 10.15625,76.75 L 51.46875,101.3125 L 51.46875,155.46875 L 19.28125,136.25 L 19.28125,90.65625 L 4.9375,82.5 L 4.9375,137.0625 C 4.3903012,144.7804 4.9778963,144.87061 11.28125,148.53125 L 55.5625,174.25 C 61.35901,177.83372 67.02368,175.14645 67.09375,168.3125 L 67.09375,100.9375 C 67.855937,95.378351 66.104891,92.332425 61.53125,89.40625 L 29.5,71.71875 L 71.015625,46.96875 L 112.53125,71.71875 L 80.5,89.40625 C 75.926334,92.33245 74.144059,95.378324 74.90625,100.9375 L 74.90625,168.3125 C 74.976313,175.14641 80.672199,177.83371 86.46875,174.25 L 130.75,148.53125 C 137.05337,144.87065 137.64093,144.78035 137.09375,137.0625 L 137.09375,82.5 L 122.75,90.65625 L 122.75,136.25 L 90.5625,155.46875 L 90.5625,101.3125 L 131.875,76.75 C 135.55503,74.307838 137.03241,69.115376 132.625,66.5 L 76.40625,34.125 C 76.40625,34.125 73.99419,32.449342 71.03125,32.4375 C 71.020665,32.437458 71.010599,32.4375 71,32.4375 z" transform="matrix(0.8,0,0,-0.8,18.857143,504.16586)" id="path2402" style="fill:#00425f;fill-opacity:1;fill-rule:nonzero;stroke:none"/>
      <path d="M 193.73714,400.19486 C 206.89314,400.19486 215.77214,410.85986 215.77214,424.01586 C 215.77214,437.17286 206.89314,447.83786 193.73714,447.83786 L 176.46514,447.83786 L 176.46514,400.19486 L 193.73714,400.19486 z M 175.83514,384.41186 L 175.60814,351.35886 C 175.58814,348.90186 173.56214,346.89286 171.10614,346.89286 L 162.84914,346.89286 C 160.39214,346.89286 158.38214,348.90186 158.38214,351.35886 L 158.38214,459.15486 C 158.38214,461.61086 160.39214,463.62086 162.84914,463.62086 L 197.52014,463.62086 C 219.39214,463.62086 234.15214,445.89086 234.15214,424.01586 C 234.15214,402.14386 219.39214,384.41186 197.52014,384.41186 L 176.16814,384.41186 L 175.83514,384.41186 z" id="path2404" style="fill:#0092c8;fill-opacity:1;fill-rule:nonzero;stroke:none"/>
      <path d="M 299.44614,400.19486 L 299.44614,447.83786 L 285.74814,447.83786 C 272.59114,447.83786 263.71314,437.17286 263.71314,424.01586 C 263.71314,410.85986 272.59114,400.19486 285.74814,400.19486 L 299.44614,400.19486 z M 283.20114,384.11486 C 261.16414,384.11486 246.29414,401.97886 246.29414,424.01586 C 246.29414,446.05386 261.16414,463.91786 283.20114,463.91786 L 310.91114,463.91786 C 313.36714,463.91786 315.37814,461.90786 315.37814,459.45086 L 315.37814,388.58186 C 315.37814,386.12486 313.36714,384.11486 310.91114,384.11486 L 283.20114,384.11486 z" id="path2406" style="fill:#0092c8;fill-opacity:1;fill-rule:nonzero;stroke:none"/>
      <path d="M 710.96714,400.19486 L 710.96714,447.83786 L 697.26914,447.83786 C 684.11214,447.83786 675.23514,437.17286 675.23514,424.01586 C 675.23514,410.85986 684.11214,400.19486 697.26914,400.19486 L 710.96714,400.19486 z M 694.72414,384.11486 C 672.68614,384.11486 657.81514,401.97886 657.81514,424.01586 C 657.81514,446.05386 672.68614,463.91786 694.72414,463.91786 L 722.43214,463.91786 C 724.88914,463.91786 726.89914,461.90786 726.89914,459.45086 L 726.89914,388.58186 C 726.89914,386.12486 724.88914,384.11486 722.43214,384.11486 L 694.72414,384.11486 z" id="path2408" style="fill:#0092c8;fill-opacity:1;fill-rule:nonzero;stroke:none"/>
      <path d="M 600.94114,424.01586 C 600.94114,446.05386 615.81214,463.91786 637.85014,463.91786 L 645.66314,463.91786 C 648.12014,463.91786 650.12914,461.90786 650.12914,459.45086 L 650.12914,452.30486 C 650.12914,449.84786 648.12014,447.83786 645.66314,447.83786 L 640.39514,447.83786 C 627.23814,447.83786 618.36114,437.17286 618.36114,424.01586 L 618.36114,389.73786 C 618.36114,387.28186 616.35114,385.27486 613.89414,385.28086 L 605.42014,385.29686 C 602.96314,385.30186 600.95414,387.31486 600.95214,389.77086 L 600.94114,424.01586 z" id="path2410" style="fill:#0092c8;fill-opacity:1;fill-rule:nonzero;stroke:none"/>
      <path d="M 449.81014,463.62086 C 427.93614,463.62086 413.17514,445.88986 413.17514,424.01586 C 413.17514,402.14386 427.93614,384.41186 449.81014,384.41186 L 480.80914,384.41186 C 483.26614,384.41186 485.27614,386.42186 485.27614,388.87886 L 485.27614,496.97286 C 485.27614,499.42886 483.26614,501.43886 480.80914,501.43886 L 472.75114,501.43886 C 470.29414,501.43886 468.28414,499.42886 468.28414,496.97286 L 468.28414,463.62086 L 449.81014,463.62086 z M 451.60714,400.19486 C 438.45214,400.19486 429.57314,410.85986 429.57314,424.01586 C 429.57314,437.17286 438.45214,447.83786 451.60714,447.83786 L 468.28414,447.83786 L 468.28414,400.19486 L 451.60714,400.19486 z" id="path2412" style="fill:#0092c8;fill-opacity:1;fill-rule:nonzero;stroke:none"/>
      <path d="M 543.61914,447.54086 C 530.62814,447.54086 520.09614,437.00886 520.09614,424.01786 C 520.09614,411.02586 530.62814,400.49486 543.61914,400.49486 C 556.61014,400.49486 567.14214,411.02586 567.14214,424.01786 C 567.14214,437.00886 556.61014,447.54086 543.61914,447.54086 M 583.81714,424.01786 C 583.81714,401.81686 565.81914,383.81986 543.61914,383.81986 C 521.41914,383.81986 503.42114,401.81686 503.42114,424.01786 C 503.42114,446.21886 521.41914,464.21486 543.61914,464.21486 C 565.81914,464.21486 583.81714,446.21886 583.81714,424.01786" id="path2414" style="fill:#0092c8;fill-opacity:1;fill-rule:nonzero;stroke:none"/>
      <path d="M 372.10214,447.54086 C 376.27114,447.54086 381.33214,442.77686 381.33214,438.30986 L 381.33214,390.36786 C 381.33214,387.91186 383.34114,385.90186 385.79814,385.90186 L 394.73214,385.90186 C 397.18814,385.90186 399.19814,387.91186 399.19814,390.36786 L 399.19814,437.71386 C 399.19814,452.90086 391.15914,463.91886 370.61414,463.91886 C 352.15214,463.91886 334.87914,463.68186 334.87914,463.68186 C 332.42314,463.64786 330.41414,461.60986 330.41414,459.15386 L 330.41414,390.06986 C 330.41414,387.61286 332.42314,385.60386 334.88014,385.60386 L 343.51614,385.60386 C 345.97314,385.60386 347.98214,387.61286 347.98214,390.06986 L 347.98214,447.54086 L 372.10214,447.54086 z" id="path2416" style="fill:#0092c8;fill-opacity:1;fill-rule:nonzero;stroke:none"/>
    </g>
  </g>
</svg>